<svg width="17" height="5" viewBox="0 0 17 5" fill="none" xmlns="http://www.w3.org/2000/svg">
<path d="M10.6712 3.00003L16.375 3.00003L16.375 1.87503L10.6712 1.87503C10.5417 1.39838 10.2589 0.977603 9.86654 0.677612C9.47414 0.377621 8.99393 0.215088 8.5 0.215088C8.00607 0.215088 7.52586 0.377621 7.13346 0.677612C6.74106 0.977602 6.45828 1.39838 6.32875 1.87503L0.625 1.87502L0.625 3.00002L6.32875 3.00003C6.45828 3.47667 6.74106 3.89745 7.13346 4.19744C7.52586 4.49743 8.00607 4.65996 8.5 4.65996C8.99393 4.65996 9.47414 4.49743 9.86654 4.19744C10.2589 3.89745 10.5417 3.47667 10.6712 3.00003ZM7.375 2.43753C7.375 2.21502 7.44098 1.99751 7.5646 1.81251C7.68821 1.6275 7.86391 1.48331 8.06948 1.39816C8.27505 1.31301 8.50125 1.29073 8.71948 1.33414C8.9377 1.37755 9.13816 1.4847 9.29549 1.64203C9.45283 1.79936 9.55998 1.99982 9.60338 2.21805C9.64679 2.43628 9.62451 2.66248 9.53936 2.86804C9.45422 3.07361 9.31002 3.24931 9.12502 3.37293C8.94001 3.49654 8.7225 3.56253 8.5 3.56253C8.20163 3.56253 7.91548 3.444 7.7045 3.23302C7.49353 3.02204 7.375 2.73589 7.375 2.43753Z" fill="white"/>
</svg>
