<svg width="17" height="5" viewBox="0 0 17 5" fill="none" xmlns="http://www.w3.org/2000/svg">
<path d="M6.17125 3.06253L16.375 3.06253L16.375 1.93753L6.17125 1.93753C6.04172 1.46088 5.75894 1.0401 5.36654 0.740111C4.97414 0.440121 4.49393 0.277587 4 0.277587C3.50607 0.277587 3.02586 0.44012 2.63346 0.740111C2.24106 1.0401 1.95828 1.46088 1.82875 1.93752L0.625 1.93752L0.625 3.06252L1.82875 3.06252C1.95828 3.53917 2.24106 3.95995 2.63346 4.25994C3.02586 4.55993 3.50607 4.72246 4 4.72246C4.49393 4.72246 4.97414 4.55993 5.36654 4.25994C5.75894 3.95995 6.04172 3.53917 6.17125 3.06253ZM2.875 2.50002C2.875 2.27752 2.94098 2.06001 3.0646 1.87501C3.18821 1.69 3.36391 1.54581 3.56948 1.46066C3.77505 1.37551 4.00125 1.35323 4.21948 1.39664C4.4377 1.44005 4.63816 1.5472 4.79549 1.70453C4.95283 1.86186 5.05998 2.06232 5.10338 2.28055C5.14679 2.49878 5.12451 2.72498 5.03936 2.93054C4.95422 3.13611 4.81002 3.31181 4.62502 3.43543C4.44001 3.55904 4.2225 3.62502 4 3.62502C3.70163 3.62502 3.41548 3.5065 3.2045 3.29552C2.99353 3.08454 2.875 2.79839 2.875 2.50002Z" fill="white"/>
</svg>
