<svg width="17" height="5" viewBox="0 0 17 5" fill="none" xmlns="http://www.w3.org/2000/svg">
<path d="M13 4.81253C13.4976 4.81091 13.9806 4.64441 14.3734 4.33908C14.7663 4.03374 15.0469 3.60679 15.1712 3.12503L16.375 3.12503L16.375 2.00003L15.1713 2.00003C15.0417 1.52338 14.7589 1.1026 14.3665 0.802612C13.9741 0.502621 13.4939 0.340088 13 0.340088C12.5061 0.340088 12.0259 0.502621 11.6335 0.802612C11.2411 1.1026 10.9583 1.52338 10.8288 2.00003L0.625 2.00002L0.625 3.12502L10.8288 3.12503C10.9531 3.60679 11.2337 4.03374 11.6266 4.33908C12.0194 4.64441 12.5024 4.81091 13 4.81253ZM11.875 2.56253C11.875 2.34002 11.941 2.12251 12.0646 1.93751C12.1882 1.7525 12.3639 1.60831 12.5695 1.52316C12.775 1.43801 13.0012 1.41573 13.2195 1.45914C13.4377 1.50255 13.6382 1.6097 13.7955 1.76703C13.9528 1.92436 14.06 2.12482 14.1034 2.34305C14.1468 2.56128 14.1245 2.78748 14.0394 2.99304C13.9542 3.19861 13.81 3.37431 13.625 3.49793C13.44 3.62154 13.2225 3.68753 13 3.68753C12.7016 3.68753 12.4155 3.569 12.2045 3.35802C11.9935 3.14704 11.875 2.86089 11.875 2.56253Z" fill="white"/>
</svg>
